<?xml version="1.0" standalone="no"?>
<!DOCTYPE svg PUBLIC "-//W3C//DTD SVG 20010904//EN"
 "http://www.w3.org/TR/2001/REC-SVG-20010904/DTD/svg10.dtd">
<svg version="1.0" xmlns="http://www.w3.org/2000/svg"
 width="300.000000pt" height="226.000000pt" viewBox="0 0 300.000000 226.000000"
 preserveAspectRatio="xMidYMid meet">
<g transform="translate(0.000000,226.000000) scale(0.100000,-0.100000)"
fill="#000000" stroke="#000000">
<path d="M894 2208 c-26 -29 -59 -78 -73 -108 -23 -49 -26 -67 -26 -170 0 -92
5 -130 23 -189 13 -40 21 -76 18 -79 -4 -3 -16 4 -29 15 -35 32 -106 70 -177
93 -130 44 -304 2 -522 -128 -91 -54 -97 -70 -47 -145 82 -125 298 -247 436
-247 74 0 221 38 297 78 28 14 57 25 64 24 21 -5 13 16 -9 23 -21 7 -151 -33
-145 -44 2 -3 -9 -7 -26 -7 -17 -1 -33 -6 -37 -11 -8 -12 -36 -15 -146 -16
-80 -1 -95 2 -135 25 -25 14 -56 29 -70 33 -14 4 -38 18 -53 31 -16 13 -33 24
-38 24 -12 0 -18 6 -82 81 -47 56 -59 77 -34 63 9 -6 9 -4 -1 8 -11 14 -10 17
7 23 12 3 21 11 21 16 0 5 9 9 20 9 11 0 29 9 40 20 11 11 26 20 33 20 7 0 23
9 35 20 12 12 28 20 35 19 6 -1 26 3 42 10 51 21 154 42 210 42 55 1 215 -46
215 -62 0 -5 7 -9 15 -9 9 0 18 -6 21 -14 3 -8 16 -17 29 -20 27 -7 57 2 50
14 -3 5 -1 11 4 14 12 8 6 117 -7 125 -5 3 -12 33 -14 67 -3 34 -8 65 -11 71
-3 5 0 31 8 58 8 26 15 60 15 75 0 28 35 69 47 56 4 -4 1 -11 -7 -16 -10 -6
-11 -12 -4 -22 6 -7 12 -40 13 -73 4 -88 4 -95 13 -95 5 0 17 -19 28 -42 22
-49 43 -78 56 -78 5 0 18 -12 29 -26 15 -21 25 -25 49 -20 17 4 32 10 36 14
11 16 60 42 80 42 11 0 20 4 20 8 0 14 619 9 628 -4 4 -6 24 -17 45 -24 21 -6
41 -18 44 -26 18 -48 112 25 164 128 22 43 41 188 28 210 -8 13 11 49 23 42 5
-3 6 -10 2 -15 -3 -6 2 -19 11 -29 9 -10 14 -23 11 -29 -3 -5 1 -16 10 -25 8
-9 13 -20 9 -25 -3 -6 -2 -35 3 -66 5 -30 5 -58 1 -61 -5 -3 -9 -15 -8 -27 0
-12 -8 -54 -17 -93 -17 -71 -14 -118 7 -97 19 19 50 149 56 233 9 132 -22 219
-114 320 -37 42 -60 52 -49 23 4 -10 10 -74 13 -143 8 -163 -5 -202 -95 -302
l-25 -27 -37 30 c-66 53 -105 59 -406 59 -154 0 -294 -5 -322 -11 -31 -6 -65
-23 -90 -45 l-40 -34 -41 46 c-22 25 -50 66 -62 91 -20 42 -21 55 -16 182 3
75 8 144 12 154 13 32 -13 17 -61 -35z"/>
<path d="M2382 1770 c-58 -21 -158 -75 -168 -91 -3 -6 -18 -15 -32 -20 -24 -9
-25 -11 -9 -20 22 -13 47 -5 83 26 16 14 34 25 39 25 6 0 24 7 40 16 41 21 58
25 139 31 75 6 220 -20 244 -44 7 -7 18 -13 24 -13 16 0 149 -68 169 -86 11
-10 19 -23 19 -31 0 -8 5 -11 10 -8 6 3 10 2 10 -4 0 -11 -150 -166 -150 -154
0 4 -4 4 -8 -2 -7 -10 -45 -32 -117 -67 -22 -11 -47 -23 -56 -28 -8 -4 -60 -6
-115 -4 -117 4 -134 6 -134 15 0 9 -59 24 -79 20 -7 -1 -10 2 -6 8 3 6 0 11
-8 11 -8 0 -28 7 -46 16 -33 16 -81 12 -81 -7 0 -5 6 -9 13 -7 6 1 35 -10 63
-24 76 -40 223 -78 297 -78 168 0 437 179 463 308 5 24 0 32 -32 57 -54 42
-218 120 -304 145 -104 31 -201 35 -268 10z"/>
<path d="M851 1327 c-35 -43 -23 -96 77 -337 123 -299 132 -355 73 -485 -19
-41 -31 -84 -31 -109 0 -77 70 -186 119 -186 33 0 98 -52 119 -95 18 -37 29
-47 79 -66 52 -21 74 -23 223 -23 148 0 171 2 223 23 49 19 61 29 82 69 28 54
55 76 111 91 108 29 153 179 90 301 -19 36 -30 75 -33 115 -6 78 16 146 154
480 55 133 62 197 26 227 -20 16 -34 -7 -22 -39 5 -14 5 -33 -2 -49 -5 -15 -7
-29 -5 -32 3 -2 -1 -11 -9 -18 -7 -7 -16 -33 -20 -56 -4 -23 -13 -48 -21 -55
-7 -8 -11 -20 -8 -28 4 -8 1 -15 -5 -15 -6 0 -11 -6 -11 -14 0 -8 -13 -44 -30
-79 -16 -36 -30 -71 -30 -79 0 -8 -4 -18 -9 -24 -15 -15 -51 -155 -51 -199 0
-51 27 -145 41 -145 6 0 9 -6 7 -12 -3 -7 2 -19 9 -27 16 -16 11 -115 -8 -137
-6 -8 -9 -14 -6 -14 4 0 -6 -13 -21 -29 -15 -16 -29 -28 -32 -28 -13 2 -110
-47 -110 -55 0 -13 -53 -72 -93 -105 -8 -6 -64 -18 -125 -26 -99 -12 -121 -12
-204 3 -90 15 -162 45 -152 62 3 4 0 8 -5 8 -6 0 -11 6 -11 13 0 21 -64 74
-98 82 -18 3 -32 11 -32 16 0 6 -4 8 -8 5 -10 -6 -52 38 -52 53 0 5 -5 11 -11
13 -22 7 -22 93 0 142 12 25 21 49 21 54 0 5 6 22 14 36 13 26 12 151 -1 186
-3 8 -5 23 -4 33 1 9 -3 17 -9 17 -7 0 -10 6 -7 14 3 8 1 16 -5 18 -6 2 -11
13 -12 23 -3 22 -7 33 -42 113 -13 29 -24 61 -24 70 0 10 -4 22 -9 27 -24 25
-79 186 -78 229 0 52 -5 63 -22 43z"/>
</g>
</svg>
