<?xml version="1.0" encoding="UTF-8"?>
<svg version="1.1" xmlns="http://www.w3.org/2000/svg" width="1500" height="1500">

<circle cx="750" cy="750" r="750" fill="#000000"/>
<path d="M0 0 C0.16520401 3.38668212 -0.00064464 6.0022011 -0.95898438 9.27441406 C-1.98194648 12.93539006 -2.45772022 16.26523921 -2.78125 20.046875 C-2.83967575 20.71795792 -2.8981015 21.38904083 -2.95829773 22.08045959 C-3.14794157 24.30299314 -3.32522559 26.52625008 -3.5 28.75 C-3.56281158 29.53120209 -3.62562317 30.31240417 -3.69033813 31.11727905 C-5.89520448 58.75991799 -7.15517133 86.43357981 -7.29653931 114.16513062 C-7.30701865 116.19056968 -7.32183264 118.21599188 -7.34140015 120.24136353 C-7.46612856 135.03694277 -6.92944827 149.2280839 -0.5 162.875 C-0.15743164 163.62056152 0.18513672 164.36612305 0.53808594 165.13427734 C9.6973578 184.39795408 23.42871907 201.57968381 38 217 C39.34229584 218.49198514 40.67685541 219.99100491 42 221.5 C42.515625 222.0878125 43.03125 222.675625 43.5625 223.28125 C45.11489064 225.13736924 46.56483413 227.05227489 48 229 C50.804157 227.70683006 52.99171449 226.3042567 55.28515625 224.2421875 C56.19648315 223.43309937 56.19648315 223.43309937 57.1262207 222.60766602 C57.76519287 222.03588623 58.40416504 221.46410645 59.0625 220.875 C65.1324809 215.53556288 71.28530311 210.52150642 78 206 C78.77085937 205.47019531 79.54171875 204.94039062 80.3359375 204.39453125 C93.32537772 196.00102254 108.35444437 192.03264197 123.625 190.9375 C125.28958252 190.81290405 125.28958252 190.81290405 126.98779297 190.68579102 C137.65419975 189.91106343 148.31289181 189.37608481 159 189 C160.15729614 188.95846802 161.31459229 188.91693604 162.50695801 188.87414551 C194.98086187 187.76053177 227.465099 187.81218011 259.95356762 187.81488937 C265.33218514 187.81458367 270.71075269 187.80638126 276.08935547 187.79418945 C335.3189968 187.66311398 335.3189968 187.66311398 359.5703125 188.88671875 C360.34927761 188.92566568 361.12824272 188.96461262 361.93081284 189.00473976 C377.13002806 189.79718728 392.65592928 190.68915872 407.5625 193.875 C408.39418701 194.0493457 409.22587402 194.22369141 410.08276367 194.40332031 C429.81672409 198.6895342 445.12397464 208.74158955 460.1796875 221.73828125 C461.63761719 222.98158203 461.63761719 222.98158203 463.125 224.25 C463.97320313 224.99765625 464.82140625 225.7453125 465.6953125 226.515625 C467.82313736 228.23237842 467.82313736 228.23237842 469.96166992 227.76611328 C472.25360369 226.90468219 473.27707423 226.0253389 474.91796875 224.2265625 C475.44551758 223.65462158 475.97306641 223.08268066 476.51660156 222.4934082 C477.34369629 221.56854614 477.34369629 221.56854614 478.1875 220.625 C478.76338867 219.99231201 479.33927734 219.35962402 479.93261719 218.70776367 C484.06671681 214.13154826 488.04758735 209.44594244 491.89453125 204.625 C493.30043742 202.87218191 494.73583003 201.14262078 496.19921875 199.4375 C519.33468415 172.3048076 526.21883492 142.21538769 526.25 107.375 C526.25167175 106.38566467 526.25334351 105.39632935 526.25506592 104.37701416 C526.2566819 88.17291261 525.64683317 72.04546287 524.625 55.875 C524.56187622 54.86894714 524.49875244 53.86289429 524.43371582 52.82635498 C523.77544686 42.54137686 522.98975217 32.2686096 522.0234375 22.0078125 C521.95113922 21.20052704 521.87884094 20.39324158 521.80435181 19.56149292 C521.33604662 14.83662919 520.36708014 10.56518484 519 6 C518.875 2.5625 518.875 2.5625 519 0 C533.45415844 1.48947061 546.54552289 20.42613143 555.25463867 31.0456543 C566.52350174 45.19221098 576.67799332 60.43738596 584 77 C584.27247559 77.60440918 584.54495117 78.20881836 584.82568359 78.83154297 C610.04498299 135.4497052 598.63333055 211.00028977 577.30859375 267.32128906 C576.25368339 270.01703287 575.19365571 272.6467518 573.80078125 275.1875 C572.76615339 277.52929184 572.85945661 279.470219 573 282 C580.89281564 280.04664724 586.55538587 277.54029786 592.25 271.6875 C600.17637725 263.94126769 609.89302781 258.51428915 619.5625 253.25 C620.18539917 252.90849915 620.80829834 252.56699829 621.45007324 252.21514893 C639.46136734 242.36156201 658.16847893 232.58489945 678 227 C679.05912598 226.6911084 679.05912598 226.6911084 680.13964844 226.37597656 C704.93677969 219.49452804 734.95889013 221.13991952 760 226 C761.05654785 226.20399414 762.1130957 226.40798828 763.20166016 226.61816406 C803.64404025 234.64471762 840.9356653 250.36370262 878 268 C878.6185083 268.29410767 879.2370166 268.58821533 879.87426758 268.89123535 C945.78467022 300.31176912 945.78467022 300.31176912 955 319 C957.65987109 333.95278886 948.87983032 349.28450683 940.796875 361.265625 C936.55583985 367.04885476 931.96252233 372.44943981 927.09765625 377.71484375 C925.27160799 379.7041142 923.5400992 381.738515 921.8125 383.8125 C912.9301225 393.96378858 902.3974786 402.55855554 891.69384766 410.70019531 C890.04420179 411.96608096 888.41636298 413.2553729 886.79296875 414.5546875 C878.60167159 421.07057821 869.96425804 426.61169451 861 432 C860.3404834 432.40186523 859.6809668 432.80373047 859.00146484 433.21777344 C833.00801197 449.04985934 806.29583011 461.64216608 777 470 C776.04561035 470.27537598 775.0912207 470.55075195 774.10791016 470.83447266 C746.18892037 478.58030475 716.96041612 476.19491142 689 470 C687.08018311 469.58983643 687.08018311 469.58983643 685.12158203 469.17138672 C656.74435218 463.07694516 628.09699858 454.866398 602 442 C598.73328584 440.40805388 595.46251034 438.82480863 592.1875 437.25 C590.99713135 436.67741455 590.99713135 436.67741455 589.78271484 436.09326172 C582.25984628 432.53691086 574.43466479 429 566 429 C566.12539141 435.01878767 567.92086641 437.56168982 572.2109375 441.71484375 C579.58797914 451.13748428 577.99651701 464.78752281 577 476 C572.8583019 504.42107573 560.35510314 531.46497666 549.40884399 557.78977966 C514.79167327 638.83278337 514.79167327 638.83278337 487.65087891 722.55517578 C487.03217144 724.87915799 486.36818482 727.18619026 485.69921875 729.49609375 C478.75219031 754.89420103 481.49444335 788.31531844 493.1875 812.0625 C493.80445846 813.34974667 494.42029527 814.63753139 495.03515625 815.92578125 C495.68997689 817.28391554 496.34492813 818.64198687 497 820 C509.91053097 846.78858144 516.87161359 878.92675232 508.32421875 908.2578125 C507.88722656 909.49273438 507.45023438 910.72765625 507 912 C506.75330566 912.70608398 506.50661133 913.41216797 506.25244141 914.13964844 C499.00828919 934.42683224 486.61500908 951.5340417 467.1328125 961.4609375 C461.96634447 963.70785019 456.65989929 965.44648037 451.30371094 967.17236328 C427.88143745 974.74617726 414.42162408 987.95966903 402.875 1009.25 C391.27030843 1030.60048761 373.76854828 1039.2349053 351.0625 1046.375 C331.87141116 1051.13853463 312.55622065 1051.43775449 292.88671875 1051.36328125 C290.13393484 1051.36129038 287.38115606 1051.36323381 284.62837219 1051.36479187 C278.89925145 1051.36566648 273.17025092 1051.35476672 267.44116211 1051.33618164 C260.86766526 1051.31497612 254.29434334 1051.31152005 247.72081918 1051.3177436 C241.32425605 1051.32348364 234.92775296 1051.31774071 228.5311985 1051.30657005 C225.84065803 1051.3019901 223.15021664 1051.30155444 220.45966148 1051.3031559 C190.12858 1051.30617706 150.92511674 1049.21977573 127.56640625 1026.6484375 C122.68828404 1021.07109036 119.28527062 1015.03519348 115.94165039 1008.48730469 C112.95365466 1002.70465847 109.38858633 997.82192968 105 993 C104.18917969 992.10796875 103.37835937 991.2159375 102.54296875 990.296875 C91.11228667 978.31390521 78.01186964 968.48543493 61.4375 965.5625 C46.25975398 962.74158559 36.05861589 951.97173428 27.3125 939.8125 C12.80441529 917.78754531 0.88390404 891.59746952 6.08007812 864.70068359 C9.40015757 849.12520967 15.27792331 834.51776033 21.5625 819.9375 C24.88159927 812.23590618 28.03626641 804.56373515 30.5625 796.5625 C30.78945557 795.84892334 31.01641113 795.13534668 31.25024414 794.40014648 C34.48980221 783.66242683 35.39016678 773.25834144 35.375 762.0625 C35.37445618 761.38058594 35.37391235 760.69867187 35.37335205 759.99609375 C35.33371791 749.13951063 34.38291627 738.91109723 31.61962891 728.38574219 C30.98328732 725.93565156 30.41580059 723.47631424 29.85546875 721.0078125 C22.85429409 691.23561321 11.34588498 662.42252643 -0.13348389 634.13806152 C-1.33631273 631.17017433 -2.53184817 628.19936571 -3.72790527 625.22874451 C-11.31933072 606.38002637 -19.02865052 587.57979155 -26.78125 568.796875 C-27.0419931 568.16456467 -27.30273621 567.53225433 -27.57138062 566.88078308 C-28.99059237 563.44016796 -30.41470522 560.00166882 -31.84448242 556.56542969 C-34.84112171 549.35007196 -37.81001866 542.15509304 -40.3125 534.75 C-40.88902644 533.0650027 -41.46587008 531.3801139 -42.04296875 529.6953125 C-42.35024902 528.79458008 -42.6575293 527.89384766 -42.97412109 526.96582031 C-44.12012517 523.65271763 -45.30291934 520.35390733 -46.48828125 517.0546875 C-64.72704967 465.94478432 -64.72704967 465.94478432 -56.48828125 446.53125 C-54.07338868 442.42403115 -51.03362662 438.92069754 -47.828125 435.41015625 C-45.59711336 432.97301798 -45.59711336 432.97301798 -46 429 C-52.0869501 428.57099953 -56.41943335 429.96683451 -62 432.3125 C-62.86882812 432.66715332 -63.73765625 433.02180664 -64.6328125 433.38720703 C-71.22115469 436.12648392 -77.60464779 439.21739921 -84 442.375 C-118.05520999 459.05516194 -155.78489137 467.72486241 -193 474 C-194.07507813 474.19722656 -195.15015625 474.39445312 -196.2578125 474.59765625 C-212.10851037 476.30185446 -229.32931689 476.02892146 -245 473 C-245.75522949 472.8546582 -246.51045898 472.70931641 -247.28857422 472.55957031 C-294.97739205 463.06539279 -340.79554976 437.82718833 -378 407 C-378.55526367 406.54625 -379.11052734 406.0925 -379.68261719 405.625 C-400.84339545 388.28207416 -434.09934435 358.68603199 -437.2734375 329.484375 C-437.53303094 322.4953209 -436.48582416 318.37376365 -432 313 C-431.32517578 312.16082031 -431.32517578 312.16082031 -430.63671875 311.3046875 C-421.26347528 300.88997254 -407.00805813 293.96296893 -395 287 C-393.77893555 286.29085449 -393.77893555 286.29085449 -392.53320312 285.56738281 C-335.84655198 252.78297444 -273.17532747 222.48446635 -206.375 222.625 C-205.44657288 222.62521149 -204.51814575 222.62542297 -203.56158447 222.62564087 C-189.99343481 222.65650616 -177.11423685 223.23408739 -164 227 C-162.7315625 227.32742188 -161.463125 227.65484375 -160.15625 227.9921875 C-130.03103686 236.5193656 -98.34714601 250.97132523 -74.20703125 271.1796875 C-71.74855391 273.20738739 -69.21732642 275.08423046 -66.625 276.9375 C-65.83351563 277.50339844 -65.04203125 278.06929688 -64.2265625 278.65234375 C-62.10238619 279.93802941 -60.42682662 280.5622847 -58 281 C-59.87507794 267.85659655 -63.35612049 255.41774266 -67.18505859 242.72167969 C-75.78845192 213.98871721 -77.36320849 185.82572835 -77.31567383 156.04956055 C-77.3110213 152.8860053 -77.31805849 149.72283254 -77.33618164 146.55932617 C-77.57741464 103.99879301 -77.57741464 103.99879301 -70.8125 87.25 C-70.50771729 86.4667334 -70.20293457 85.6834668 -69.88891602 84.87646484 C-59.56112804 59.03728037 -42.08640917 36.02508503 -23 16 C-21.84177734 14.7625 -21.84177734 14.7625 -20.66015625 13.5 C-7.68464949 0 -7.68464949 0 0 0 Z " fill="#FFFFFF" transform="translate(492,211)"/>

</svg>
